<svg viewBox="0 0 3334 3334" xmlns="http://www.w3.org/2000/svg" fill-rule="evenodd" clip-rule="evenodd" stroke-linejoin="round" stroke-miterlimit="1.414"><g fill="#fff" fill-rule="nonzero"><path d="M1306.697 2234.273c0 49.658 35.22 69.975 78.267 45.141l984.146-567.6c43.05-24.825 43.05-65.459 0-90.284l-984.146-567.608c-43.046-24.83-78.267-4.513-78.267 45.141v1135.21z"/><path d="M1666.53 562.834c-608.654 0-1103.834 495.175-1103.834 1103.834 0 608.663 495.18 1103.843 1103.834 1103.843 608.66 0 1103.843-495.18 1103.843-1103.843 0-608.659-495.184-1103.834-1103.843-1103.834zm0 2277.977c-313.62 0-608.475-122.134-830.238-343.897-221.767-221.77-343.896-516.62-343.896-830.246 0-313.621 122.13-608.475 343.896-830.238 221.763-221.767 516.617-343.9 830.238-343.9 313.626 0 608.476 122.133 830.247 343.9 221.763 221.763 343.896 516.613 343.896 830.238s-122.133 608.475-343.896 830.246c-221.771 221.763-516.621 343.897-830.247 343.897z"/></g></svg>