<?xml version="1.0" encoding="UTF-8" standalone="no"?>
<!DOCTYPE svg PUBLIC "-//W3C//DTD SVG 1.1//EN" "http://www.w3.org/Graphics/SVG/1.1/DTD/svg11.dtd">
<svg width="100%" height="100%" viewBox="0 0 3334 3334" version="1.1" xmlns="http://www.w3.org/2000/svg" xmlns:xlink="http://www.w3.org/1999/xlink" xml:space="preserve" xmlns:serif="http://www.serif.com/" style="fill-rule:evenodd;clip-rule:evenodd;stroke-linejoin:round;stroke-miterlimit:1.41421;">
    <g transform="matrix(4.16667,0,0,4.16667,0,0)">
        <path d="M313.607,536.225C313.607,548.143 322.06,553.019 332.391,547.059L568.586,410.835C578.918,404.877 578.918,395.125 568.586,389.167L332.391,252.941C322.06,246.982 313.607,251.858 313.607,263.775L313.607,536.225Z" style="fill:white;fill-rule:nonzero;"/>
        <path d="M399.967,135.08C253.89,135.08 135.047,253.922 135.047,400C135.047,546.079 253.89,664.922 399.967,664.922C546.045,664.922 664.889,546.079 664.889,400C664.889,253.922 546.045,135.08 399.967,135.08ZM399.967,681.794C324.698,681.794 253.933,652.482 200.71,599.259C147.486,546.034 118.175,475.27 118.175,400C118.175,324.731 147.486,253.966 200.71,200.743C253.933,147.519 324.698,118.207 399.967,118.207C475.237,118.207 546.001,147.519 599.226,200.743C652.449,253.966 681.761,324.73 681.761,400C681.761,475.27 652.449,546.034 599.226,599.259C546.001,652.482 475.237,681.794 399.967,681.794Z" style="fill:white;fill-rule:nonzero;"/>
    </g>
</svg>
